HIERARCHY
ROOT hip
{
  OFFSET 9.61854 105.935 -5.39096
  CHANNELS 6 Xposition Yposition Zposition Zrotation Xrotation Yrotation
  JOINT abdomen
  {
    OFFSET 0 -1.186 -1.50178
    CHANNELS 6 Xposition Yposition Zposition Zrotation Xrotation Yrotation
    JOINT abdomen2
    {
      OFFSET 0 9.964 0.21338
      CHANNELS 6 Xposition Yposition Zposition Zrotation Xrotation Yrotation
      JOINT chest
      {
        OFFSET 0 13.134 -3.25729
        CHANNELS 6 Xposition Yposition Zposition Zrotation Xrotation Yrotation
        JOINT neck
        {
          OFFSET 0 21.686 -1.69049
          CHANNELS 6 Xposition Yposition Zposition Zrotation Xrotation Yrotation
          JOINT head
          {
            OFFSET 0 11.838 -0.12368
            CHANNELS 6 Xposition Yposition Zposition Zrotation Xrotation Yrotation
            End Site
            {
              OFFSET 0 6.717 2.38717
            }
          }
        }
        JOINT lCollar
        {
          OFFSET 1.70688 20.075 5.0056
          CHANNELS 6 Xposition Yposition Zposition Zrotation Xrotation Yrotation
          JOINT lShldr
          {
            OFFSET 13.6458 -0.047012 -4.84902
            CHANNELS 6 Xposition Yposition Zposition Zrotation Xrotation Yrotation
            JOINT lForeArm
            {
              OFFSET 28.3255 -0.975903 2.28883
              CHANNELS 6 Xposition Yposition Zposition Zrotation Xrotation Yrotation
              JOINT lHand
              {
                OFFSET 22.1583 -0.530035 10.8316
                CHANNELS 6 Xposition Yposition Zposition Zrotation Xrotation Yrotation
                JOINT lThumb1
                {
                  OFFSET 0.785995 0.111999 2.58168
                  CHANNELS 6 Xposition Yposition Zposition Zrotation Xrotation Yrotation
                  JOINT lThumb2
                  {
                    OFFSET 0.3601 -0.878005 4.2331
                    CHANNELS 6 Xposition Yposition Zposition Zrotation Xrotation Yrotation
                    End Site
                    {
                      OFFSET 1.81271 -1.21601 2.2227
                    }
                  }
                }
                JOINT lCarpal1
                {
                  OFFSET 0.9571 1.114 1.76948
                  CHANNELS 6 Xposition Yposition Zposition Zrotation Xrotation Yrotation
                  JOINT lIndex1
                  {
                    OFFSET 4.1246 0.487 4.1451
                    CHANNELS 6 Xposition Yposition Zposition Zrotation Xrotation Yrotation
                    JOINT lIndex2
                    {
                      OFFSET 3.40521 -1.45401 2.7682
                      CHANNELS 6 Xposition Yposition Zposition Zrotation Xrotation Yrotation
                      End Site
                      {
                        OFFSET 1.4531 -1.795 1.2713
                      }
                    }
                  }
                  JOINT lMid1
                  {
                    OFFSET 5.6954 0.209991 2.1184
                    CHANNELS 6 Xposition Yposition Zposition Zrotation Xrotation Yrotation
                    JOINT lMid2
                    {
                      OFFSET 3.9766 -1.53999 2.3863
                      CHANNELS 6 Xposition Yposition Zposition Zrotation Xrotation Yrotation
                      End Site
                      {
                        OFFSET 1.4042 -1.926 1.125
                      }
                    }
                  }
                }
                JOINT lCarpal2
                {
                  OFFSET 2.09559 0.65999 -0.38939
                  CHANNELS 6 Xposition Yposition Zposition Zrotation Xrotation Yrotation
                  JOINT lRing1
                  {
                    OFFSET 5.0395 -0.089997 2.49707
                    CHANNELS 6 Xposition Yposition Zposition Zrotation Xrotation Yrotation
                    JOINT lRing2
                    {
                      OFFSET 3.7921 -1.552 1.4806
                      CHANNELS 6 Xposition Yposition Zposition Zrotation Xrotation Yrotation
                      End Site
                      {
                        OFFSET 1.4655 -1.808 0.9609
                      }
                    }
                  }
                  JOINT lPinky1
                  {
                    OFFSET 4.9141 -1.269 0.35915
                    CHANNELS 6 Xposition Yposition Zposition Zrotation Xrotation Yrotation
                    JOINT lPinky2
                    {
                      OFFSET 3.1477 -1.685 0.84623
                      CHANNELS 6 Xposition Yposition Zposition Zrotation Xrotation Yrotation
                      End Site
                      {
                        OFFSET 0.805505 -1.58499 0.79549
                      }
                    }
                  }
                }
              }
            }
          }
        }
        JOINT rCollar
        {
          OFFSET -1.70688 20.075 5.0056
          CHANNELS 6 Xposition Yposition Zposition Zrotation Xrotation Yrotation
          JOINT rShldr
          {
            OFFSET -13.6458 -0.047012 -4.84902
            CHANNELS 6 Xposition Yposition Zposition Zrotation Xrotation Yrotation
            JOINT rForeArm
            {
              OFFSET -28.3255 -0.975903 2.28883
              CHANNELS 6 Xposition Yposition Zposition Zrotation Xrotation Yrotation
              JOINT rHand
              {
                OFFSET -22.1583 -0.530036 10.8316
                CHANNELS 6 Xposition Yposition Zposition Zrotation Xrotation Yrotation
                JOINT rThumb1
                {
                  OFFSET -0.785995 0.111999 2.58168
                  CHANNELS 6 Xposition Yposition Zposition Zrotation Xrotation Yrotation
                  JOINT rThumb2
                  {
                    OFFSET -0.3601 -0.878005 4.2331
                    CHANNELS 6 Xposition Yposition Zposition Zrotation Xrotation Yrotation
                    End Site
                    {
                      OFFSET -1.81271 -1.21601 2.2227
                    }
                  }
                }
                JOINT rCarpal1
                {
                  OFFSET -0.9571 1.114 1.76948
                  CHANNELS 6 Xposition Yposition Zposition Zrotation Xrotation Yrotation
                  JOINT rIndex1
                  {
                    OFFSET -4.1246 0.487 4.1451
                    CHANNELS 6 Xposition Yposition Zposition Zrotation Xrotation Yrotation
                    JOINT rIndex2
                    {
                      OFFSET -3.40521 -1.45401 2.7682
                      CHANNELS 6 Xposition Yposition Zposition Zrotation Xrotation Yrotation
                      End Site
                      {
                        OFFSET -1.4531 -1.795 1.2713
                      }
                    }
                  }
                  JOINT rMid1
                  {
                    OFFSET -5.6954 0.209991 2.1184
                    CHANNELS 6 Xposition Yposition Zposition Zrotation Xrotation Yrotation
                    JOINT rMid2
                    {
                      OFFSET -3.9766 -1.53999 2.3863
                      CHANNELS 6 Xposition Yposition Zposition Zrotation Xrotation Yrotation
                      End Site
                      {
                        OFFSET -1.4042 -1.926 1.125
                      }
                    }
                  }
                }
                JOINT rCarpal2
                {
                  OFFSET -2.09559 0.65999 -0.38939
                  CHANNELS 6 Xposition Yposition Zposition Zrotation Xrotation Yrotation
                  JOINT rRing1
                  {
                    OFFSET -5.0395 -0.089997 2.49707
                    CHANNELS 6 Xposition Yposition Zposition Zrotation Xrotation Yrotation
                    JOINT rRing2
                    {
                      OFFSET -3.7921 -1.552 1.4806
                      CHANNELS 6 Xposition Yposition Zposition Zrotation Xrotation Yrotation
                      End Site
                      {
                        OFFSET -1.4655 -1.808 0.9609
                      }
                    }
                  }
                  JOINT rPinky1
                  {
                    OFFSET -4.9141 -1.269 0.35915
                    CHANNELS 6 Xposition Yposition Zposition Zrotation Xrotation Yrotation
                    JOINT rPinky2
                    {
                      OFFSET -3.1477 -1.685 0.84623
                      CHANNELS 6 Xposition Yposition Zposition Zrotation Xrotation Yrotation
                      End Site
                      {
                        OFFSET -0.805505 -1.58499 0.79549
                      }
                    }
                  }
                }
              }
            }
          }
        }
      }
    }
  }
  JOINT lThigh
  {
    OFFSET 8.367 -8.2066 0.59823
    CHANNELS 6 Xposition Yposition Zposition Zrotation Xrotation Yrotation
    JOINT lShin
    {
      OFFSET 2.19232 -43.463 -0.493181
      CHANNELS 6 Xposition Yposition Zposition Zrotation Xrotation Yrotation
      JOINT lFoot
      {
        OFFSET 0.733257 -45.8593 -2.64513
        CHANNELS 6 Xposition Yposition Zposition Zrotation Xrotation Yrotation
        End Site
        {
          OFFSET 2.6618 -4.26993 12.3931
        }
      }
    }
  }
  JOINT rThigh
  {
    OFFSET -8.367 -8.2066 0.59823
    CHANNELS 6 Xposition Yposition Zposition Zrotation Xrotation Yrotation
    JOINT rShin
    {
      OFFSET -2.19233 -43.463 -0.493108
      CHANNELS 6 Xposition Yposition Zposition Zrotation Xrotation Yrotation
      JOINT rFoot
      {
        OFFSET -0.733256 -45.8593 -2.64514
        CHANNELS 6 Xposition Yposition Zposition Zrotation Xrotation Yrotation
        End Site
        {
          OFFSET -2.6618 -4.26993 12.3931
        }
      }
    }
  }
}
MOTION
Frames:	4
Frame Time:	0.0333333
-6.2982 101.632 17.3229 0.938043 0.570692 1.79825 0 -1.186 -1.50178 0.0875093 1.09591 -0.716226 0 9.964 0.21338 0.188768 2.19062 -1.43451 -8.88179e-016 13.134 -3.25729 0.188768 2.19062 -1.43451 -1.33227e-015 21.686 -1.69049 -1.20149 -2.01817 -0.274353 8.88178e-016 11.838 -0.12368 -1.69035 -6.01456 1.21423 1.70688 20.075 5.0056 3.49916 -0.934268 -12.1659 13.6458 -0.047012 -4.84902 -55.3374 9.41404 0.831515 28.3255 -0.975903 2.28883 -14.4708 -20.4704 -19.2165 22.1583 -0.530035 10.8316 -1.30052 -0.95298 -6.61371 0.785995 0.111999 2.58168 -4.57205e-015 1.59028e-015 -6.36111e-015 0.3601 -0.878005 4.2331 -9.93923e-016 -1.19271e-015 -6.36111e-015 0.9571 1.114 1.76948 -4.57205e-015 1.59028e-015 -6.36111e-015 4.1246 0.487 4.1451 -9.93923e-016 -1.19271e-015 -6.36111e-015 3.40521 -1.45401 2.7682 -1.59028e-015 -1.98785e-015 -3.18055e-015 5.6954 0.209991 2.1184 -9.93923e-016 -1.19271e-015 -6.36111e-015 3.9766 -1.53999 2.3863 -1.59028e-015 -1.98785e-015 -3.18055e-015 2.09559 0.65999 -0.38939 -4.57205e-015 1.59028e-015 -6.36111e-015 5.0395 -0.089997 2.49707 -9.93923e-016 -1.19271e-015 -6.36111e-015 3.7921 -1.552 1.4806 -1.59028e-015 -1.98785e-015 -3.18055e-015 4.9141 -1.269 0.35915 -9.93923e-016 -1.19271e-015 -6.36111e-015 3.1477 -1.685 0.84623 -1.59028e-015 -1.98785e-015 -3.18055e-015 -1.70688 20.075 5.0056 5.81006 1.19204 10.2775 -13.6458 -0.047012 -4.84902 71.1752 -20.3021 -13.5573 -28.3255 -0.975903 2.28883 -1.12918 2.73076 -1.83071 -22.1583 -0.530036 10.8316 4.5316 5.49281 0.658823 -0.785995 0.111999 2.58168 9.93923e-016 -1.59028e-015 3.18055e-015 -0.3601 -0.878005 4.2331 -1.98785e-016 0 -0 -0.9571 1.114 1.76948 9.93923e-016 -1.59028e-015 3.18055e-015 -4.1246 0.487 4.1451 -1.98785e-016 0 -0 -3.40521 -1.45401 2.7682 -5.96354e-016 7.95139e-016 3.18055e-015 -5.6954 0.209991 2.1184 -1.98785e-016 0 -0 -3.9766 -1.53999 2.3863 -5.96354e-016 7.95139e-016 3.18055e-015 -2.09559 0.65999 -0.38939 9.93923e-016 -1.59028e-015 3.18055e-015 -5.0395 -0.089997 2.49707 -1.98785e-016 0 -0 -3.7921 -1.552 1.4806 -5.96354e-016 7.95139e-016 3.18055e-015 -4.9141 -1.269 0.35915 -1.98785e-016 0 -0 -3.1477 -1.685 0.84623 -5.96354e-016 7.95139e-016 3.18055e-015 8.367 -8.2066 0.59823 -1.135 11.4875 1.79414 2.19232 -43.463 -0.493181 0.43822 30.3274 2.75157 0.733257 -45.8593 -2.64513 -5.35023 2.76954 -1.38081 -8.367 -8.2066 0.59823 0.189483 -25.321 15.7288 -2.19233 -43.463 -0.493108 3.07093 13.9452 -0.965424 -0.733256 -45.8593 -2.64514 6.85925 -0.199485 -0.304731 
-7.34769 101.99 22.9313 0.156851 -0.196377 1.12485 -8.88178e-016 -1.186 -1.50178 0.176801 1.16386 -0.50028 -8.88178e-016 9.964 0.21338 0.363874 2.32611 -1.00446 0 13.134 -3.25729 0.363872 2.32611 -1.00446 0 21.686 -1.69049 -0.941903 -1.82695 -0.237578 -8.88178e-016 11.838 -0.12368 -1.72082 -5.44538 1.30399 1.70688 20.075 5.0056 3.10848 -0.820575 -11.7435 13.6458 -0.047012 -4.84902 -56.0396 8.45436 1.87455 28.3255 -0.975904 2.28883 -14.4194 -19.4951 -19.4453 22.1583 -0.530035 10.8316 -1.0156 0.116388 -6.84142 0.785995 0.111999 2.58168 5.96354e-016 -1.59028e-015 -0 0.3601 -0.878005 4.2331 -2.38542e-015 7.95139e-016 -0 0.9571 1.114 1.76948 5.96354e-016 -1.59028e-015 -0 4.1246 0.487 4.1451 -2.38542e-015 7.95139e-016 -0 3.40521 -1.45401 2.7682 4.37326e-015 7.95139e-016 3.18055e-015 5.6954 0.209991 2.1184 -2.38542e-015 7.95139e-016 -0 3.9766 -1.53999 2.3863 4.37326e-015 7.95139e-016 3.18055e-015 2.09559 0.65999 -0.38939 5.96354e-016 -1.59028e-015 -0 5.0395 -0.089997 2.49707 -2.38542e-015 7.95139e-016 -0 3.7921 -1.552 1.4806 4.37326e-015 7.95139e-016 3.18055e-015 4.9141 -1.269 0.35915 -2.38542e-015 7.95139e-016 -0 3.1477 -1.685 0.84623 4.37326e-015 7.95139e-016 3.18055e-015 -1.70688 20.075 5.0056 6.5406 1.35362 10.9952 -13.6458 -0.047012 -4.84902 70.5458 -20.563 -13.4495 -28.3255 -0.975903 2.28883 -1.32203 2.57148 -3.03708 -22.1583 -0.530036 10.8316 4.40616 7.40281 -0.637251 -0.785995 0.111999 2.58168 3.97569e-016 -1.98785e-016 -0 -0.3601 -0.878005 4.2331 -2.98177e-016 1.98785e-016 -0 -0.9571 1.114 1.76948 3.97569e-016 -1.98785e-016 -0 -4.1246 0.487 4.1451 -2.98177e-016 1.98785e-016 -0 -3.40521 -1.45401 2.7682 -3.97569e-016 -1.98785e-016 -0 -5.6954 0.209991 2.1184 -2.98177e-016 1.98785e-016 -0 -3.9766 -1.53999 2.3863 -3.97569e-016 -1.98785e-016 -0 -2.09559 0.65999 -0.38939 3.97569e-016 -1.98785e-016 -0 -5.0395 -0.089997 2.49707 -2.98177e-016 1.98785e-016 -0 -3.7921 -1.552 1.4806 -3.97569e-016 -1.98785e-016 -0 -4.9141 -1.269 0.35915 -2.98177e-016 1.98785e-016 -0 -3.1477 -1.685 0.84623 -3.97569e-016 -1.98785e-016 -0 8.367 -8.2066 0.59823 0.562548 5.33083 3.61955 2.19232 -43.463 -0.493181 1.698 44.4155 4.11321 0.733257 -45.8593 -2.64513 -8.06586 12.5025 -1.53964 -8.367 -8.2066 0.59823 1.65986 -23.8697 20.7313 -2.19233 -43.463 -0.493108 6.71402 18.3862 -2.00743 -0.733256 -45.8593 -2.64514 5.54878 -1.86455 -3.02915 
-8.28786 102.346 28.2434 0.327795 -1.02446 1.44051 1.77636e-015 -1.186 -1.50178 0.00859909 1.29098 -0.510656 1.77636e-015 9.964 0.21338 0.0287217 2.58183 -1.02189 -8.88178e-016 13.134 -3.25729 0.0287214 2.58183 -1.02189 0 21.686 -1.69049 -0.398024 -1.66218 -0.191279 -1.77636e-015 11.838 -0.12368 -1.39294 -5.07859 1.30553 1.70688 20.075 5.0056 3.20641 -0.85725 -11.5333 13.6458 -0.047012 -4.84902 -57.0854 7.04881 3.44918 28.3255 -0.975903 2.28883 -14.2686 -17.7589 -19.6242 22.1583 -0.530035 10.8316 -1.00165 0.886203 -6.90712 0.785995 0.111999 2.58168 1.98785e-015 -2.38542e-015 -0 0.3601 -0.878005 4.2331 2.5842e-015 -1.98785e-015 -3.18055e-015 0.9571 1.114 1.76948 1.98785e-015 -2.38542e-015 -0 4.1246 0.487 4.1451 2.5842e-015 -1.98785e-015 -3.18055e-015 3.40521 -1.45401 2.7682 -0 -3.97569e-016 -0 5.6954 0.209991 2.1184 2.5842e-015 -1.98785e-015 -3.18055e-015 3.9766 -1.53999 2.3863 -0 -3.97569e-016 -0 2.09559 0.65999 -0.38939 1.98785e-015 -2.38542e-015 -0 5.0395 -0.089997 2.49707 2.5842e-015 -1.98785e-015 -3.18055e-015 3.7921 -1.552 1.4806 -0 -3.97569e-016 -0 4.9141 -1.269 0.35915 2.5842e-015 -1.98785e-015 -3.18055e-015 3.1477 -1.685 0.84623 -0 -3.97569e-016 -0 -1.70688 20.075 5.0056 7.21145 1.49656 11.4556 -13.6458 -0.047012 -4.84902 70.3173 -19.4489 -12.3028 -28.3255 -0.975903 2.28883 -1.38427 2.15757 -3.69098 -22.1583 -0.530036 10.8316 4.6141 8.7723 -1.5555 -0.785995 0.111999 2.58168 -6.95746e-016 -3.97569e-016 6.36111e-015 -0.3601 -0.878005 4.2331 -7.45443e-016 -1.98785e-016 6.36111e-015 -0.9571 1.114 1.76948 -6.95746e-016 -3.97569e-016 6.36111e-015 -4.1246 0.487 4.1451 -7.45443e-016 -1.98785e-016 6.36111e-015 -3.40521 -1.45401 2.7682 -1.98785e-016 -3.97569e-016 6.36111e-015 -5.6954 0.209991 2.1184 -7.45443e-016 -1.98785e-016 6.36111e-015 -3.9766 -1.53999 2.3863 -1.98785e-016 -3.97569e-016 6.36111e-015 -2.09559 0.65999 -0.38939 -6.95746e-016 -3.97569e-016 6.36111e-015 -5.0395 -0.089997 2.49707 -7.45443e-016 -1.98785e-016 6.36111e-015 -3.7921 -1.552 1.4806 -1.98785e-016 -3.97569e-016 6.36111e-015 -4.9141 -1.269 0.35915 -7.45443e-016 -1.98785e-016 6.36111e-015 -3.1477 -1.685 0.84623 -1.98785e-016 -3.97569e-016 6.36111e-015 8.367 -8.2066 0.59823 1.21792 -1.29585 3.05925 2.19232 -43.463 -0.493181 1.44598 56.5524 6.43362 0.733257 -45.8593 -2.64513 -9.71989 18.7027 -1.91512 -8.367 -8.2066 0.59823 1.73003 -21.6501 21.3308 -2.19233 -43.463 -0.493108 8.95225 21.7781 -2.93026 -0.733256 -45.8593 -2.64514 1.92853 -5.06528 -3.2365 
-9.04658 102.906 33.4282 1.05079 -1.75262 3.10901 0 -1.186 -1.50178 -0.278895 1.41387 -0.746789 0 9.964 0.21338 -0.539575 2.83125 -1.48736 0 13.134 -3.25729 -0.539573 2.83124 -1.48735 0 21.686 -1.69049 -0.0871363 -1.52072 -0.161115 0 11.838 -0.12368 -0.871736 -4.72731 0.74618 1.70688 20.075 5.0056 3.267 -0.877142 -11.4552 13.6458 -0.047012 -4.84902 -57.8519 5.52247 5.08106 28.3255 -0.975903 2.28883 -13.9946 -15.062 -19.2695 22.1583 -0.530035 10.8316 -1.34306 0.856524 -6.95484 0.785995 0.111999 2.58168 3.77691e-015 1.98785e-015 -0 0.3601 -0.878005 4.2331 3.37934e-015 0 -6.36111e-015 0.9571 1.114 1.76948 3.77691e-015 1.98785e-015 -0 4.1246 0.487 4.1451 3.37934e-015 0 -6.36111e-015 3.40521 -1.45401 2.7682 3.18055e-015 1.59028e-015 -0 5.6954 0.209991 2.1184 3.37934e-015 0 -6.36111e-015 3.9766 -1.53999 2.3863 3.18055e-015 1.59028e-015 -0 2.09559 0.65999 -0.38939 3.77691e-015 1.98785e-015 -0 5.0395 -0.089997 2.49707 3.37934e-015 0 -6.36111e-015 3.7921 -1.552 1.4806 3.18055e-015 1.59028e-015 -0 4.9141 -1.269 0.35915 3.37934e-015 0 -6.36111e-015 3.1477 -1.685 0.84623 3.18055e-015 1.59028e-015 -0 -1.70688 20.075 5.0056 7.76256 1.59052 11.4382 -13.6458 -0.047012 -4.84902 70.3522 -17.5044 -10.6559 -28.3255 -0.975903 2.28883 -1.30746 1.47268 -3.5998 -22.1583 -0.530036 10.8316 4.28837 9.01565 -1.2848 -0.785995 0.111999 2.58168 1.98785e-015 -3.97569e-016 3.18055e-015 -0.3601 -0.878005 4.2331 2.38542e-015 7.95139e-016 3.18055e-015 -0.9571 1.114 1.76948 1.98785e-015 -3.97569e-016 3.18055e-015 -4.1246 0.487 4.1451 2.38542e-015 7.95139e-016 3.18055e-015 -3.40521 -1.45401 2.7682 1.98785e-016 -3.97569e-016 -3.18055e-015 -5.6954 0.209991 2.1184 2.38542e-015 7.95139e-016 3.18055e-015 -3.9766 -1.53999 2.3863 1.98785e-016 -3.97569e-016 -3.18055e-015 -2.09559 0.65999 -0.38939 1.98785e-015 -3.97569e-016 3.18055e-015 -5.0395 -0.089997 2.49707 2.38542e-015 7.95139e-016 3.18055e-015 -3.7921 -1.552 1.4806 1.98785e-016 -3.97569e-016 -3.18055e-015 -4.9141 -1.269 0.35915 2.38542e-015 7.95139e-016 3.18055e-015 -3.1477 -1.685 0.84623 1.98785e-016 -3.97569e-016 -3.18055e-015 8.367 -8.2066 0.59823 0.90752 -7.45332 0.540439 2.19232 -43.463 -0.493181 -1.67198 64.6767 10.3098 0.733257 -45.8593 -2.64513 -9.78251 19.1453 -3.54679 -8.367 -8.2066 0.59823 1.281 -18.0971 17.4448 -2.19233 -43.463 -0.493108 8.01463 23.4174 -3.13505 -0.733256 -45.8593 -2.64514 -0.574672 -8.00193 -0.751556 
